<!--?xml version="1.0" encoding="utf-8"?-->
<!-- Svg Vector Icons : http://www.onlinewebfonts.com/icon -->

<svg version="1.1" xmlns="http://www.w3.org/2000/svg" xmlns:xlink="http://www.w3.org/1999/xlink" x="0px" y="0px" viewBox="0 0 256 256" enable-background="new 0 0 256 256" xml:space="preserve">
<metadata> Svg Vector Icons : http://www.onlinewebfonts.com/icon </metadata>
<g><g><path fill="#ffffff" data-title="Layer 0" xs="0" d="M216.5,23.5h-81.1c-16.3,0-29.5,11.7-29.5,26.1v32.7c0,3.6,3.3,6.5,7.4,6.5c4.1,0,7.4-2.9,7.4-6.5V49.6c0-7.2,6.6-13.1,14.8-13.1h81.1c8.1,0,14.7,5.9,14.7,13.1v156.7c0,7.2-6.6,13.1-14.7,13.1h-81.1c-8.1,0-14.8-5.9-14.8-13.1v-32.7c0-3.6-3.3-6.5-7.4-6.5c-4.1,0-7.4,2.9-7.4,6.5v32.7c0,14.4,13.2,26.1,29.5,26.1h81.1c2,0,4-0.2,5.9-0.5c13.4-2.4,23.6-13,23.6-25.6V49.6C246,35.2,232.7,23.5,216.5,23.5z"/><path fill="#ffffff" data-title="Layer 1" xs="1" d="M77.7,166.2l-42.5-37.6h130.7c2,0,3.9-0.7,5.2-1.9c1.3-1.2,2.2-2.8,2.2-4.6c0-3.6-3.3-6.5-7.4-6.5l-130.5,0l43-37.9c1.4-1.3,2.3-3,2.3-5.1c0-3.8-3-6.8-6.8-6.8c-1.8,0-3.4,0.7-4.6,1.9c-0.4,0.2-0.8,0.5-1.1,0.8l-56,48.9c-0.1,0.1-0.3,0.2-0.4,0.4c-1,1-1.6,2.2-1.8,3.4c-0.1,0.4-0.1,0.9,0,1.3c0.1,1.5,0.8,3,2.1,4.1c0,0,0,0,0,0l56,49.6c0.5,0.5,1.2,0.8,1.8,1.1c1.1,0.8,2.5,1.3,3.9,1.3c3.8,0,6.8-3,6.8-6.8C80.7,169.4,79.5,167.4,77.7,166.2z"/></g></g>
</svg>