<!--?xml version="1.0" encoding="utf-8"?-->
<!-- Svg Vector Icons : http://www.onlinewebfonts.com/icon -->

<svg version="1.1" xmlns="http://www.w3.org/2000/svg" xmlns:xlink="http://www.w3.org/1999/xlink" x="0px" y="0px" viewBox="0 0 256 256" enable-background="new 0 0 256 256" xml:space="preserve">
<metadata> Svg Vector Icons : http://www.onlinewebfonts.com/icon </metadata>
<g><g><g><path fill="#000000" data-title="Layer 0" xs="0" d="M100.4,12.1C63,14.8,29.5,39.9,16.3,75.1C4,107.9,9.9,144.5,31.8,171.6c1.7,2.1,5.6,6.3,8.7,9.2c14,13.4,31.1,22.1,50.8,25.9c6.9,1.3,26.8,1.3,33.4,0c14.4-2.9,25.9-7.5,37-14.7c2.1-1.4,3.9-2.5,4.2-2.5c0.2,0,9.6,11.2,20.9,25c11.2,13.8,21.1,25.7,21.9,26.4c2.8,2.6,6.5,4,9.4,3.5c1.5-0.3,4-2.5,14.4-12.9c13.4-13.3,14.1-14.2,13.4-18c-0.7-4.1-2.5-5.8-29.4-27.9c-14.4-11.8-26.1-21.6-26.1-21.8c0-0.3,0.9-2,2.1-3.9c10.4-17.2,15.4-39.7,13.2-59.8c-4.8-43.9-36.6-78.5-80-86.8c-3.8-0.7-16.5-1.9-18.9-1.7C106.2,11.6,103.4,11.8,100.4,12.1z M114.3,28.4c20.9,1.7,38.5,10.2,53.1,25.4c27.3,28.5,29.9,72.5,6.2,105c-3.6,5-12.6,13.8-17.7,17.4c-20.4,14.5-45.6,19-69.6,12.5c-20.2-5.5-38.3-19.5-49-37.9c-18.1-31.2-13.4-71.1,11.4-97C64.5,37.3,83,29.1,107,28C107.8,27.9,111,28.1,114.3,28.4z"/><path fill="#000000" data-title="Layer 1" xs="1" d="M101.3,45.8c-5,0.6-12.5,2.5-17.1,4.3C66.2,57.3,52.1,74,45.7,96.2c-4,13.9-4,24.2,0.2,26.9c3.8,2.5,11.2,3.7,12.1,1.9c0.3-0.5,0.6-3.4,0.8-6.5c1.8-32.1,26.3-57.6,57.1-59.5l5.9-0.4l1.1-2.2c0.6-1.2,1.2-3.3,1.4-4.8c0.4-3-0.3-4.1-3.3-5.5C118.7,45.5,107.2,45.1,101.3,45.8z"/></g></g></g>
</svg>